<svg width="34" height="34" viewBox="0 0 34 34" fill="none" xmlns="http://www.w3.org/2000/svg">
    <rect width="34" height="34" rx="4" fill="#0493E1" />
    <rect x=".5" y=".5" width="33" height="33" rx="3.5" stroke="#132E86" stroke-opacity=".8" />
    <path
        d="M19.6719 18.9492c-.2214.5599-.612 1.0417-1.1719 1.4453-.5599.4037-1.1849.6055-1.875.6055-1.3542 0-2.4251-.5241-3.2129-1.5723-.7878-1.0547-1.1816-2.3405-1.1816-3.8574 0-2.0312.5078-3.5482 1.5234-4.5508.7227-.7031 1.709-1.0547 2.959-1.0547s2.2363.5925 2.959 1.7774l.0586-1.4551h1.8066c-.0586 1.5951-.0879 3.7142-.0879 6.3574v2.8711c0 2.3047-.5013 3.8737-1.5039 4.7071-.7161.6054-1.8034.9895-3.2617 1.1523-.7162.0846-1.5625.127-2.5391.127l-.1465-1.3672c1.4193 0 2.4349-.0847 3.0469-.2539.6185-.1693 1.0677-.3581 1.3477-.5664.2799-.2084.5208-.4786.7226-.8106.3711-.6185.5567-1.5657.5567-2.8418v-.7129Zm-.8496-6.7676c-.2019-.2604-.472-.4655-.8106-.6152-.3385-.1562-.7324-.2344-1.1816-.2344-.4427 0-.8334.0782-1.1719.2344-.6185.28-1.0482.7715-1.2891 1.4746-.2343.7031-.3515 1.4095-.3515 2.1192 0 .7031.0293 1.2304.0879 1.582.1172.7617.3906 1.3997.8203 1.914.4297.5079 1.0384.7618 1.8262.7618 1.25 0 2.0996-.5599 2.5488-1.6797.2474-.612.3711-1.2435.3711-1.8945 0-.6576-.0261-1.1817-.0781-1.5723a5.2958 5.2958 0 0 0-.2637-1.1426c-.1302-.3776-.2995-.6934-.5078-.9473Z"
        fill="#1410DA" />
</svg>